<svg id="basket" xmlns="http://www.w3.org/2000/svg" viewBox="0 0 106.5 94"><path d="M36.7 58.7c1.6 9.5 2.4 10.2 10.8 10.3h34c1.5 0 3.1-.2 4.4.3 1 .4 2.5 1.9 2.4 2.6-.2 1.2-1.4 2.3-2.5 3-.7.5-1.9.3-2.9.3H45.4c-8 0-11.3-2.6-13.7-10.4-5.3-17.5-10.8-34.9-15.8-52.5-1.1-4-2.9-5.6-6.9-4.9-1.2.1-2.6.3-3.5-.2C4.1 6.5 3 5.1 1.8 4 3 3.1 4.1 1.7 5.4 1.5c2.1-.5 4.3 0 6.5-.2 4.9-.6 8 1 8.7 6.2.4 3.5 2.9 3.7 5.8 3.7h71.4c8 0 8.4.5 6.2 8.3-3.2 11.4-6.6 22.7-9.5 34.1-1 3.9-2.9 5.3-7 5.2-15-.2-30-.1-45-.1h-5.8zm-13-41.2c3.5 11.5 6.6 22.3 10.1 33 .3 1.1 2.8 2 4.3 2.1 15.5.2 31 0 46.4.2 3.2 0 4.3-1.4 5-4.1l5.9-21.1L98 17.5H23.7zM48.7 84.9c0 4-2.9 6.8-6.9 6.7-3.9-.1-7-3.3-6.7-7.1.4-4 2.8-6.3 6.8-6.6 3.7-.2 6.8 3.2 6.8 7zM81.1 77.9a7 7 0 0 1 6.9 7 6.9 6.9 0 0 1-7.1 6.7c-4.1-.2-6.3-2.5-6.5-6.6-.2-3.8 2.9-7 6.7-7.1z"/><path d="M91.9 21.5l-2.4 9.3-3.4 12.5c-1.1 4-3.5 6.1-7.9 6.1-11.5-.1-23 .2-34.4-.2-2.4-.1-5.9-2.3-6.8-4.4-2.8-6.9-4.6-14.2-6.8-21.4-.2-.6.1-1.5 1.3-2.6.7 1.3 1.5 2.5 1.9 3.9 1.9 5.9 3.7 11.7 5.4 17.6.9 3 2.6 4.3 5.8 4.2h33c3.5.1 5.1-1.5 6-4.7 1.4-5.5 2.9-10.9 4.5-16.3.5-1.6 1.2-3.1 1.9-4.7.5.3 1.2.5 1.9.7z"/></svg>