<svg id="comparison" xmlns="http://www.w3.org/2000/svg" viewBox="0 0 409.6 257.7"><path d="M0 107.2c3.7-10.9 11.6-15.3 22.8-14.4 2.2.2 4.5 0 7.1 0v-5.1-77.6C30 1.4 31.3 0 39.9 0h89.6c6.7 0 8.5 1.8 8.5 8.6v84.2h36.4c2.3 0 3.8-.6 5.4-2.5a32 32 0 0 1 49.9-.1c1.7 2 3.3 2.7 5.7 2.6 2.7-.2 5.3-.2 8 0 3.5.3 5.8 2.8 5.6 6-.2 3.5-2.2 5.4-5.5 5.8-2.1.2-4.2 0-6.5 0v12.1h151.6c1.2 0 2.4.1 3.6-.1 3.1-.5 5.1-2.5 5.2-5.6.1-3.4-1.9-5.5-5.2-6.1-1.3-.2-2.7-.1-4-.1h-118c-4.8-.1-7.5-2.2-7.6-5.8-.1-3.6 2.4-5.7 7.3-6.2l1.6-.4v-4.6V9.4c0-7.8 1.6-9.4 9.3-9.4h89.6c7.4 0 9.1 1.7 9.1 9.2 0 1.9.1 3.7-.1 5.6-.4 3.6-2.8 6-5.9 5.9-3.4-.2-5.4-2-5.9-5.4l-.4-3h-83.5v80.3h83.6l.2-4.2V46.8c0-1.6-.3-3.6.5-4.7 1.4-1.8 3.7-4.1 5.5-4 1.9 0 4 2.4 5.5 4.2.8 1.1.5 3.1.5 4.7V93.1c13.1-1.1 25.2-.6 30 14.2v7.2c-2.6 7-6.7 12.4-14.4 13.9-2.2.4-4.5.4-6.8.4H235.9c-3 0-5.5.5-7 3.3l-.5.6c-5.8 3.3-5.1 8-3.7 13.5 4.5 18.8 8.6 37.6 12.9 56.4l.9 3H260c5.9 0 7.9 2 8 7.9v36.4c0 5.6-2.1 7.7-7.8 7.7H148.6c-5.6 0-7.8-2.2-7.8-7.7v-36.8c0-5.3 2.3-7.5 7.6-7.5l22-.1.8-.3 7-30.8c2.6-11.3 5-22.6 7.7-33.9.5-2.1.4-3.6-1.5-4.8a6.3 6.3 0 0 1-2.1-1.8c-2.9-5.3-7.7-5.2-13-5.2-37.9.2-75.7.1-113.6.1-1.9 0-3.8.1-5.6-.2-3.1-.6-4.9-2.7-4.8-5.9.1-3.1 1.8-5 4.7-5.6 1.4-.3 2.9-.2 4.4-.2H172.5v-12H21.2l-3.2.1c-3.7.3-6.2 2.9-6.1 6.1.1 3.2 2.4 5.5 6 5.8 2.4.2 4.8-.1 7.2.2 3.1.4 5.1 2.2 5.3 5.5.2 3.1-1.4 5.1-4.2 6-7.2 2.3-17.4-.4-22-6.1-1.9-2.3-3-5.3-4.4-7.9.2-2.6.2-5 .2-7.4zm125.7-14.5V12.3H42.4v80.4h83.3zM153 245.4h102.8V218H153v27.4zm44.7-102.5l-14.1 62.5h42.5L212 142.9h-14.3zm-13.2-32.6a20.3 20.3 0 1 0 40.5 1.1 20.3 20.3 0 0 0-19.7-20.9 20.3 20.3 0 0 0-20.8 19.8z"/><path d="M355.5 54.5c-1.1 16.6-15.1 29.6-30.9 28.6a30 30 0 1 1 2.7-59.8 30 30 0 0 1 28.2 31.2zm-12-1.3a18 18 0 1 0-35.8-.1 18 18 0 0 0 17.6 18.1c9.9.1 18.2-8.1 18.2-18zM83.8 58.4H61c-5 0-7.7-2.2-7.6-6.1.1-3.7 2.7-5.9 7.5-5.9h46.3c4.8 0 7.4 2.2 7.5 5.9 0 3.8-2.6 6-7.3 6.1H83.8zM83.9 80.8H60.7c-4.7 0-7.3-2.3-7.3-6.1 0-3.7 2.7-5.9 7.4-5.9h46.4c3.5 0 6.4.8 7.3 4.7 1 4.1-1.8 7.2-6.7 7.3H83.9zM83.8 36H61c-5 0-7.7-2.2-7.7-6.1 0-3.7 2.7-5.9 7.5-5.9h46.3c4.5 0 6.9 1.7 7.4 5.1.6 4-2 6.8-6.8 6.9H83.8z"/></svg>