<svg  xmlns="http://www.w3.org/2000/svg" viewBox="0 0 125.5 114"><path d="M90 14.8L59.4 39.2C52.2 45 44.8 50.7 37.7 56.8c-1.7 1.5-3 4.2-3.2 6.5-.9 8.6-7.3 15.2-15.6 15.3-8.2.2-15.4-6.5-15.9-14.8a15.8 15.8 0 0 1 13.7-16.4c1.3-.2 2.9-.6 3.9 0 5.1 2.8 7.4-.6 10.5-3.9 9-9.6 18.2-19 27.8-27.9 3.5-3.3 8.3-5.6 12.9-7.3 7.6-2.8 12.6-.8 18.2 6.5zm-63.2 48a8 8 0 0 0-8.2-8.1 8.2 8.2 0 0 0-8.1 8.3 8.2 8.2 0 0 0 16.3-.2zM49 43.2c-2.8-2.3-4.6-4.7-6-4.5-1.8.3-3.3 2.7-4.9 4.2 1.4 1.5 2.7 3.9 4.4 4.1 1.5.2 3.4-1.9 6.5-3.8z"/><path d="M90 67c-5.9 7.6-11.3 9.3-19.6 6.1-9-3.5-15.9-10-23.1-17.2 4.4-3.5 8.4-6.9 12.6-9.9.8-.6 3-.5 3.8.1C72.5 52.9 81.1 59.9 90 67zM37.5 28l-6.6 7.2c-3.4-.6-5.8-1.7-7.9-1.2A15.8 15.8 0 0 1 3.3 22c-2-8.6 3.9-16.9 12.9-18.6C24.7 1.8 33 8.3 34.3 17.3c.5 3.1 1.8 6.1 3.2 10.7zm-19.2-.9c4.5.1 8.3-3.4 8.5-7.9a8 8 0 0 0-7.9-8.4 8 8 0 0 0-8.4 7.9 8 8 0 0 0 7.8 8.4zM107 110.2v-6.9l7.5-.5.6-7.4h7v14.7l-15.1.1zM122.1 39.5v14.8h-7l-.5-7.3-7.3-.6v-7l14.8.1zM23 110V95.6h7.1l.5 7.2 7 .5c1.7 7.1 1.5 7.3-5.2 7.3l-7.9-.1-1.5-.5zM115.2 67.4h6.9v14.8h-6.9V67.4zM51 110.3v-6.7h15v6.7H51zM79 110.3v-6.8h15.1v6.8H79zM94.1 39.4v6.9H79.3v-6.9h14.8z"/></svg>