<svg id="logo" version="1" xmlns="http://www.w3.org/2000/svg" viewBox="0 0 530 472"><path d="M8 433h22V50l199-34v128h70v-43l199 34v297h22v29H15l-7 1v-29zm52-1h140V51h-4L65 73c-5 1-6 2-6 7v346l1 6zm269-297v297h140V159l-140-24zm-79 297v-51h29v51h20V174h-69v258h20z"/><path d="M186 172v29H74v-29h112zM74 418v-29h112v29H74zM74 114V86h112v28H74zM74 157v-28h112v28H74zM74 216h112v28H74v-28zM74 259h112v29H74v-29zM74 331v-28h112v28H74zM186 374H74v-28h112v28zM390 172v29h-46v-29h46zM344 418v-29h46v29h-46zM407 201v-29h46v29h-46zM408 418v-29h45v29h-45zM390 244h-46v-28h46v28zM390 288h-46v-29h46v29zM344 303h46v28h-46v-28zM390 374h-46v-28h46v28zM408 216h45v28h-45v-28zM453 288h-45v-29h45v29zM408 303h45v28h-46l1-28zM408 346h46v28h-46v-28z"/></svg>