<svg xmlns="http://www.w3.org/2000/svg" viewBox="0 0 549.1 543.1"><path d="M16.2 259.2c2.8-6.3 8.2-8.6 14.5-8.8 5.9-.2 9.7-2.5 11.4-8.1.1-.5.4-.9.6-1.3 2.5-4.8 5.5-8.8 11.6-8.8s9.5 4 11.4 9c2.4 6.3 6.1 9.8 13.2 9.4a14 14 0 0 1 5.3 1.1c8.1 2.8 11.3 11.7 5 17.4-7.4 6.8-9.7 13.4-7.6 23.3 1.7 8.2-7.5 14.5-14.9 10.5-8.6-4.6-15.7-5.3-24.6-.2-8.4 4.8-16.8-2.8-15.4-12.5l.2-1c2.6-7.3.9-13-5.6-17.5-2.2-1.5-3.4-4.3-5.1-6.6v-5.9zM275.2 15.2c5.9 2.8 8.1 8.4 11.1 13.6 1.1 1.9 3.6 3.5 5.9 4.2 3.3 1.1 6.9 1 10.2 2.1 7.9 2.6 10.3 10.6 5.2 17.2a31.8 31.8 0 0 1-6.3 6.4c-3.2 2.4-3.6 5.2-2.7 8.7.6 2.4 1.1 4.9 1.3 7.4.7 8.7-7.4 15.6-14.9 11.4a24 24 0 0 0-25.6 0c-7.8 4.2-15.8-3-14.9-11.9l.1-.5c3-8.1 1.1-14.4-6.1-19.7a10.3 10.3 0 0 1-3.7-12.1c1.7-4.8 5.5-7.5 10.1-7.6 8.7-.1 14-3.8 17-12 1.1-2.9 4.8-4.8 7.3-7.1l6-.1zM321.3 407.2c-4.3 10.4-8.4 21.2-21 23.5-12.7 2.4-20.3-6.2-28.1-14.9-7.7 8.3-15.3 17.3-28.1 14.9-12.6-2.3-16.7-13.1-21-23.6-10.2 4.9-20.1 10.7-31.2 4.1-11.1-6.6-11.3-18-11.8-29.4-11.3 1.2-22.6 3.1-30.8-7-8-9.9-4.4-20.4-.9-31.5-10.8-2.9-22.4-4.9-26.7-17.2-4.3-12.2 3.1-20.9 9.9-30-9.5-6.2-19.3-12.2-19.4-25-.1-12.9 9.7-18.9 19.3-25.2-6.6-9.2-14.3-18-9.7-30.3 4.5-12.1 15.8-14.1 26.6-16.9-3.5-11-7.2-21.7 1-31.7 8.1-9.8 19.2-8.2 30.5-6.8.8-11.2.7-22.7 11.7-29.3 11.2-6.7 21.1-1.2 31.4 4.1 4.3-10.4 8.4-21.5 21.2-23.7 12.6-2.2 20.2 6.4 27.8 15 7.9-8.6 15.5-17.4 28.3-14.9 12.5 2.4 16.5 13.3 20.8 23.5 25.4-15.2 43.6-4.2 43.1 25.2 10.8-.9 22.2-3 30.4 6.9 8.2 10 4.6 20.7 1.1 31.7 10.7 2.8 22.1 4.8 26.6 16.8 4.6 12.3-2.8 21-9.7 30.3C421.9 252 432 258 432 271c0 12.9-9.8 18.8-19.3 25.1 6.7 9.1 14.2 17.8 9.9 30-4.3 12.1-15.5 14.5-26.7 17 3.3 10.9 7.2 21.6-.8 31.6-8.1 10.1-19.4 8.4-30.7 7-.8 11.4-.8 22.8-11.9 29.4-11.2 6.9-21.1 1.1-31.2-3.9zm-9.4-160.1l2.9-13.3a53.5 53.5 0 0 0-6.3-40.4 20.2 20.2 0 0 0-21.3-9.7c-8.5 2-14.6 8.7-15.7 17.9-.5 4.1.3 8.4-.2 12.5a40 40 0 0 1-3.1 12.8c-4.6 9.2-10.3 17.9-15.1 27a19.2 19.2 0 0 1-10.4 9.5c-2 .8-4.9-.8-7.4-1.2l-34-5.4c-7.4-1.2-13 3.1-13.1 10.6v72.5c0 7.7 5.6 12.1 13.3 11.1l14.4-1.9c7.7-1.2 15.8-1.4 23-4 7.2-2.6 13.1-2.9 19.6 1.3 2.6 1.7 6.3 2.3 9.5 2.4 10.7.3 21.3.1 32 .1 11 0 22 .4 33-.4 11.5-.8 18.6-10.6 17.2-22-.2-1.6.3-3.9 1.4-5.1 4.5-5.3 6.6-11 5-18-.4-1.6.4-3.8 1.3-5.2 3.7-5.5 5.6-11.2 3.3-17.9-.5-1.3-.3-3.2.3-4.5 7.5-15.4-.6-28.5-17.7-28.6-10.4-.2-20.7-.1-31.9-.1zM490.6 232.1a11 11 0 0 1 10.2 7.6c2.7 7.7 7.6 11.2 15.8 11.4 5.1.1 9.3 2.7 11 7.9 1.8 5.3-.9 9.3-4.5 12.9l-1.4 1.4c-4.9 3.4-6.7 7.6-4.7 13.6.9 2.7.9 6 .3 8.8-1.4 6.5-7.4 9.8-13.7 7.8-1.9-.6-3.9-1.2-5.5-2.4-5.5-4.2-10.8-3.9-16.2.1-1.2.9-2.6 1.4-4 1.9-8.8 3-17.2-3.3-15.1-12.2 2-8.6 1-14.8-6.4-20.2a10 10 0 0 1-3.7-11.6c1.5-4.8 5.2-7.7 9.9-7.9 8.8-.2 14.4-3.8 17.4-12.2 1.5-4.5 5.5-6.9 10.6-6.9zM90.6 132.7c1.6-4.7-.5-8.2-5.1-10.5l-1.7-1.1c-4.5-3.2-8.6-6.8-7.5-13 1-6.1 5.6-9.1 11.1-10.1 7-1.3 10.4-5.2 11.7-12 1-5.4 4-9.7 9.8-10.7 6.2-1.1 10.3 2.5 13 7.4 3.2 5.9 7.5 8.4 14.1 6.9 1.4-.3 3-.1 4.5.1 8.9 1.3 13.8 9.9 8.3 16.8-6.2 7.8-7.5 14.7-4 24.2 3 8.3-5.5 16.1-13.9 12.9-8.8-3.4-15.1-2.4-22.4 3.6-7.6 6.3-17 1.2-17.9-8.6-.2-1.8 0-3.6 0-5.9zM401.9 443.6c1.4-4.4-.8-8.1-5.8-10.5l-1.6-1.1c-4.4-3.1-8.2-6.7-7.2-12.7 1-5.8 5.3-8.9 10.6-9.9 7.3-1.4 11-5.4 12.4-12.6 1-5.4 4.3-9.5 10.2-10.3 5.7-.7 9.8 2.5 12.2 7.1 3.3 6.3 7.9 8.6 14.9 7.4 5.4-.9 10.4.8 13.2 6 2.8 5.2.4 9.6-2.6 13.8l-.3.4c-5.3 4.8-6.1 10.2-2.9 16.8 2.4 4.8 2.4 10.2-2 14.3-4.1 4-9 3.5-14 1.9l-1.9-.7c-5-2.7-9.4-2.1-13.3 2.2l-.4.3c-4.7 3.7-9.6 7.1-15.9 3.6-5.9-3.3-6.1-9-5.6-16zM411.3 89.8c4.3 1.5 7.4-1 10-5.3 3.1-5.3 6.9-10.2 14.1-9.1 7.1 1.1 9.4 7 10.7 13 1.1 5.2 3.8 7.8 9 9 5.9 1.3 11.9 3.5 13.1 10.6 1.2 7.2-3.9 11-9.1 14.1-4.5 2.6-6.3 5.9-5.3 11 .3 1.3.2 2.7.2 4-.1 4.9-1.5 9.3-6.3 11.6-4.5 2.3-8.7 1-12.7-1.7l-.4-.3c-5.6-6.2-11.9-7.1-19.4-3.4a10.6 10.6 0 0 1-12.9-2.4c-3.6-3.8-3.8-8.3-2.1-13 2.1-5.8 4.4-11.2-1.5-16.7-4.1-3.9-7.1-9.2-3.9-15.3 3.2-6.4 9.3-6.7 16.5-6.1zM99.3 400.7c5.2 1.8 8.7-.9 11.2-5.7.5-1 1.3-1.9 2-2.9 2.8-3.8 6.4-6.5 11.4-5.8 5.2.7 8.8 4 9.7 8.9 1.5 8.6 6.6 12.4 14.7 14.8 10.8 3.2 12.5 14.3 3.1 20.4-7.3 4.7-10.1 9.8-8.8 18.3.7 4.7-1.6 8.8-6.1 11.1a10.2 10.2 0 0 1-12.1-1.6c-6.5-6.4-12.9-6.9-21.3-3.6A10.8 10.8 0 0 1 89 440.3c3.2-8.2 2.9-14.5-3.4-20.9-3.2-3.3-4.3-8-1.8-12.5 2.5-4.6 6.7-6.2 11.7-6.1l3.8-.1zM287.4 527.2c-1.5-.6-4.7-1.2-7.2-3-5.6-3.9-10.8-3.9-16.3.1a14 14 0 0 1-4.5 2c-8.3 2.7-16.7-3.4-14.7-11.8 2.2-9.2.1-15.2-6.9-21.5-7.2-6.5-3.9-17.4 5.8-18.3 9.8-1 15-5.2 19.2-13.8 3.9-8 14.6-8.2 18.5-.2 4.3 8.8 9.8 13 19.6 14.1 9.4 1.1 12.7 11.7 5.7 18-7.1 6.4-9.6 12.6-7 22 1.8 6.5-4 12.2-12.2 12.4z"/><path d="M253.1 326c0-15.9-.1-31.9.1-47.8 0-1.4 1.7-2.9 2.9-4.1 3.1-3.4 6.8-6.3 9.2-10.1 5.1-7.8 9.3-16.2 14.3-24a47.2 47.2 0 0 0 7.7-31.8c-.4-3.3-1.4-8 3.3-8.7 4.2-.7 5.6 3.6 6.7 6.9a40.2 40.2 0 0 1 1.9 23.5c-1.9 7.1-3.5 14.2-5.5 21.2-2.1 7.3 1 11.8 8.7 11.9l38 .1c1.2 0 2.4-.3 3.5.1 1.5.5 2.8 1.4 4.2 2.1-1.3.8-2.6 2.2-4 2.4-3.8.3-7.7.1-11.5.1h-4.5c-7.8 0-11.5 2.6-11.5 8 0 5.3 3.7 8 11.4 8 3.8 0 7.7-.2 11.5.1 2.2.2 4.4 1.2 6.6 1.8l-.2 1.8c-1.6.3-3.2.9-4.8.9-5.2.1-10.3-.1-15.5.1-5.7.1-9.3 3.6-9.1 8.4.2 4.7 3.6 7.4 9.3 7.5 3.6.1 7.3 0 10.9.6 1.5.3 2.8 2.1 4.1 3.2-1.5.8-3 2.3-4.6 2.4-4.1.3-8.3 0-12.5.1-5.4.2-8.8 3.7-8.7 8.3.2 4.5 3.5 7.3 8.8 7.6 2.3.1 4.7-.1 6.9.5 1.2.3 2.1 1.9 3.2 3-1.2.9-2.2 2.1-3.6 2.7-.8.4-2 .1-3 .1-18 0-36-.1-54 .1a19 19 0 0 1-12.2-3.3c-1.8-1.6-4.7-2.3-8-3.7zM204.4 334.4v-60.8l1.3-.7c.8 1.3 2.1 2.5 2.4 4 .4 2.3.1 4.6.1 7 .2 5.4 3.4 8.9 8.1 8.8 4.5-.1 7.7-3.5 7.8-8.6v-6.9c8.4-.2 8.4-.2 8.4 7.5 0 13.8-.1 27.7.1 41.5 0 3.2-.8 4.7-4.3 5.1-7.9.7-15.7 2-23.9 3.1z"/></svg>