<svg id="panorama" xmlns="http://www.w3.org/2000/svg" viewBox="0 0 546.1 513.1"><path d="M13.2 175.2c1.9-2.6 1.7-5.9 2.5-8.9a108 108 0 0 1 35.1-52.1c7.3-6.5 15.5-12 23.6-17.5 2.2-1 4.2-2.6 6.8-2.8 4.1.2 6.8 2.5 8.6 6l.4 2.4c-.5 4.1-2.9 6.7-6.4 8.9A125.5 125.5 0 0 0 39.9 153a56.3 56.3 0 0 0-8.6 24.2 8.6 8.6 0 0 0-.7 5c-.7 4.7-.3 9.4.8 14-.2 1.5.2 2.8 1 4 .5 4.6 2.3 8.9 4.5 12.9l1.1 2.2c1.3 3.3 3 6.3 5.3 8.9a10 10 0 0 0 2.9 4.1c1.6 2.7 3.4 5.1 5.9 7a7 7 0 0 0 2.9 3c2.6 3.3 5.7 6.1 9.1 8.4l2 1.7c2.3 2.4 4.9 4.4 7.9 5.9 1.1 1.4 2.6 2.3 4.2 3 2.4 2 5 3.8 7.9 5l3.9 2.3c2.7 2 5.7 3.6 9 4.8a7.5 7.5 0 0 0 4.1 2c3.4 2.2 7.1 3.9 11 5l3.1 1.6 9.5 3.5c1.7 1.1 3.4 1.7 5.4 1.9 2.8 1.5 5.7 2.5 8.8 2.9 1.6 1.1 3.4 1.5 5.3 1.8a50 50 0 0 0 11.9 3.2c1.1 1.1 2.6.9 4 1a49 49 0 0 0 13 3c.9.9 2 .8 3.1.7 4.2 1.3 8.5 2.1 12.9 2.4 1.3.9 2.7.7 4.1.7a55 55 0 0 0 14 2l4 .7c11.2 1.6 22.5 2.4 33.9 2.9l-18.9-19.6-1-2c-.1-8.7 2.4-11.3 11-11.2l2.9 1.5 6.9 6.9 3.1 3.1c2 2.6 4.3 4.9 6.9 6.9l3.1 3.1c2 2.6 4.3 4.9 6.9 6.9l3.1 3.1c2.1 2.9 5.4 4.8 6.9 8.3l.3 2.5c-.8 2.4-1.6 4.6-3.5 6.5l-32.4 32.1a13.1 13.1 0 0 1-6.2 3.9l-5-.7c-6.4-5.4-6.5-9.8-.6-15.8l17.9-18c-6.5-.3-11.9-1.4-17.4-.9l-4-.3-14-1.6-4-.3a66.4 66.4 0 0 0-14-1.9l-4-.8-13-2.1a16 16 0 0 0-2.1-.5l-13.8-3.1-5.1-1.2-10.8-2.9-4.2-1.2-10.9-3.4-4.1-1.5-9.6-3.4-5.2-2.2-9-3.7-4.9-2.4-10.1-4.9-1.6-.8-10.4-6c-.8-1-1.8-1.6-3-1.9l-7.6-5.1-4.3-3.1-7.6-6-3.4-2.8-7.8-7.4a4.5 4.5 0 0 0-2.3-2.4l-6.1-7.1-2.5-3.1a116.1 116.1 0 0 1-18.3-40.9c-.2-7.4-.2-14.8-.2-22.1zM494.2 120.1l6.8 7.2a36 36 0 0 0 1.8 2l6.7 8.9 2.7 4a119 119 0 0 1 13 34v21c-2.8 6.5-3.6 13.6-6.5 20.1-10.7 23.8-28.8 40.9-50.1 55-6.9 4.6-14.2 8.6-21.3 12.8a52.7 52.7 0 0 0-9.9 4.7l-23.1 9.4c-.8-.1-1.6.1-2.1.9-2.1.2-4.1.8-6 2l-21 6.2c-.8-.1-1.6-.1-2.2.7v-.1c-1.7.1-3.4.1-4.8 1.2l-20 4.3-6.9 1.2-17.1 2.8a8 8 0 0 0-5 .7l-17 1.7-5.1.5c-3.9.1-7.7-.1-10.6-3.3l-1.5-2.8c.1-7.1 2.2-10.2 7.8-11l4.3-.7 4-.3c6.1-.1 12.1-.7 18-2 1.7.1 3.4.3 5-.6 6.4-.6 12.8-1.5 19-3.3 1.7.1 3.5.1 5-.9 7.2-.9 14.2-2.5 21-5 2.4 0 4.7-.8 6.9-1.8 7.5-1.9 15-4 22.1-7.3a21 21 0 0 0 8-3 143 143 0 0 0 28-13.1c3.7-1.4 7-3.4 10.1-5.7l2-1.3c4.2-2 7.9-4.9 11.6-7.7a104 104 0 0 0 32.4-36.4c2-2.7 3.2-5.8 3.9-9 2.8-6 3.7-12.4 3.8-19l-.2-5.1a39 39 0 0 0-2.1-12.2c-.4-1.3-.2-2.8-1.4-3.8-.8-4.1-2.5-7.7-4.9-11.1l-1.7-3.1a32.7 32.7 0 0 0-6.3-8.9 10 10 0 0 0-3.2-3.9 29.5 29.5 0 0 0-6.9-7.2 7 7 0 0 0-3-2.9 25.8 25.8 0 0 0-6.9-5.9 4.5 4.5 0 0 0-2.8-2.1 31.2 31.2 0 0 0-8.1-5.9 7 7 0 0 0-3.5-2.3c-2.7-2.4-6.4-3.5-8.3-6.9l-.7-3.8c.6-5 3.6-7.6 8.3-8.6l4 .7 9.9 6.3 1.3.9 9.7 7 3.2 2.6 7 6.1c.9 1.2 1.9 2.2 2.9 3.1zM254.5 492.5l-8.1-3.4-4-3.3-5.3-7.6-1.4-4.2-.8-13.8v-5-15-5-15-5-15l.1-5a27 27 0 0 1 21.1-21.3l5-.6c5.3.4 10.7.4 16 0l4.7.6 9.3 3.3 4 3 5.3 7 1.6 3.1c.4 1.9.9 3.9 1.1 5.8 1 9.6-4.8 13.9-13.8 10.1l-3-4.2c-.1-4.2-.3-8.2-5-10.1-1.2-1-2.6-1-4.1-.7-5-.4-10-.4-15 0-7-.2-9.7 2.3-9.9 9.1v20c-.7 4-.6 6.8 4.9 5 2.4-.8 5.2-.4 7.9-.6 1.7.5 3.4.4 5.1.1l13.9.6 4.1 1.6 7.9 5.3 1.9 2 4.8 10.1.6 4.9v15l-.1 6c-2.9 13.9-9.7 20.4-24.2 23.2h-20l-4.6-1zm25.7-17.1c2.9-.5 4.6-2.3 5.4-5.1 1.2-2 .6-4.1.5-6.1v-15a5.8 5.8 0 0 0-2.8-5c-3.9-3.7-8.6-1.9-13-2h-4c-8.6-.6-12.2.8-13.6 5.6-.8 2.7-.4 5.5-.2 8.3v4.1c.1 4.5-1.8 9.4 2.5 13.2a6 6 0 0 0 4.4 2.4c5 .6 10 .4 14.9.1 1.9.2 4 .7 5.9-.5zM389.2 463.2c-.9 6.9-.9 14-5.6 19.8l-5.6 5.4a32.8 32.8 0 0 1-18.8 4.9h-4.1l-14.8-.6-4.1-1.3-8-5.2-2.9-3.2-4.2-8.8-.9-4-.1-16v-4-16-4-16-4l.7-16 1.8-5.9c2.8-5.1 6.8-9 11.7-12.1l7.9-2.3 15.1-.6h4l11.8 2 4.1 2.2 7.1 6.7 1.9 3c1.5 3.8 2.3 7.9 2.9 11.9a7.4 7.4 0 0 0 0 5.1c-.7 5-.6 9.9 0 14.9-.5 1.4-.7 2.8.2 4.1-1.2 5.3-.7 10.6-.2 15.9-.5 1.4-.7 2.8.2 4.1-1.2 5.3-.7 10.6-.2 15.9-.6 1.4-.8 2.8.1 4.1zm-17.9 0v-4a95 95 0 0 0 0-16v-4a95 95 0 0 0 0-16c.2-1.1.7-2.3-.7-3.1 1.6-5.6.9-11.2.7-16.9.2-1.1.7-2.3-.7-3.1 1.3-6.1-2-9.3-9.3-8.9h-4c-3.7-.1-7.3-.3-11-.2-5.4.2-8.6 3.3-8.8 8.8-.2 3.5.1 7 .2 10.5v44.1c-.2 5.3-1 10.7.6 16a4.7 4.7 0 0 0 3 4c4 3.2 8.6 1.6 13 1.7h5c9.7.4 12.7-2.8 12-12.9z"/><path fill="#000405" d="M196.3 392c-4.9-2.3-10-1-15.1-.9h-4c-7.4-.3-9.8 2.1-10.4 10a10.7 10.7 0 0 1-6.6 6.7c-3.7.4-6.6-.9-9.1-3.6l-1.6-4.1c2-17.5 9.5-24.8 27.7-26.8h4c9.6.3 19.5-.6 27.8 6l3.1 3.1 5 8.8.7 3 .5 15.9v4a29.3 29.3 0 0 1-5.2 17.2c-1 1.3-1.6 2.6.2 3.7l2 3c1.4 3.9 2.7 7.8 3.1 12v4l-.1 16a9.8 9.8 0 0 0-1 5 29.8 29.8 0 0 1-17 17.1l-5 1-16 .1h-4.1c-4.5-.2-8.7-1.7-12.9-3.4l-1.5-1-7.5-7.8-1.5-3.1a28 28 0 0 1-1.8-12.8c.9-2.7 3.1-4.4 5.3-6 3.8-.6 7.2.1 10 3l1.5 3.1c.2 5.1 1.3 9.6 7.5 10.5l5 .1c5.3-.1 10.7 1.1 16-.7 2.8-.6 4.4-2.2 4.9-5 1.7-5.3.7-10.6.7-16 .2-1.7.6-3.5-.3-5.1-1.5-5.7-3.7-7.1-10.3-6.7h-4.1l-13.6-.4-3.2-1.8c-3.3-4.1-3.8-8.4-.6-12.8.3 0 .5-.2.5-.6 4.9-3.5 10.6-1.6 15.8-2.5 1.5.2 2.9.4 4.4.4 8.8.1 11.6-2.7 11.5-11.6l-.3-4c0-4.7 1.4-9.6-1.3-14.1a4.5 4.5 0 0 0-3.1-2.9z"/><path fill="#000507" d="M404.2 330.9c4.5-.1 8.7 1 12.9 2.4l3 1.9 6.2 6 2.7 4.2c1 3.5 2.3 7 2.4 10.8l-.2 5a28 28 0 0 1-21.1 21l-4 .2c-4.6 0-8.8-1.5-13-3.1l-3-2-6.8-7.5-1.3-2.5a40.7 40.7 0 0 1-2.1-13l1-5.1a28.3 28.3 0 0 1 16.2-17c.8 0 1.6 0 2.2-.8h.1a78 78 0 0 0 4.8-.5zm10 25.8c0-4.8-3.6-8.5-8.4-8.5a8.4 8.4 0 0 0-8.6 8.4 8.6 8.6 0 0 0 8.5 8.6c4.6 0 8.5-3.9 8.5-8.5z"/><path fill="#000102" stroke="#000" stroke-miterlimit="10" d="M171.3 44.9c10-6.1 20.4-11.4 31-16.4l7.9-3 21-6.3c1.8.1 3.5-.1 5-1l18-2.4c1.7.3 3.4 0 5-.5l16-.1 4 .1 13.9 1.6 4.1.5 13 2.8 4 1 10.9 3.3 4.1 1.6 11 4.2c.6.9 1.6 1.1 2.6 1.2l10.3 5.2 3.1 1.7c2.7 2.1 5.5 3.9 8.7 5.2l4.3 2.8c2.4 2 4.8 3.9 7.6 5.3l2.9 2a47 47 0 0 0 8.5 6.8l2.7 2.1c2.3 2.7 4.9 5.1 7.9 7.1l3.3 3.2 6.8 6.8c.9 1.5 1.9 2.9 3.4 3.8a435.4 435.4 0 0 1 8.8 10.5l5.5 7.5 2.3 3.2 5.6 8.8 1.8 3c1 4 4.6 7.3 3.7 11.9l-3.7 8a217.4 217.4 0 0 1-76.1 75.7l-10.8 5.9-25 10.6-7.9 2.3-19.1 4.5c-1.7-.1-3.4-.1-5 .6l-17 1.6h-4.1l-14.9-.4c-1.3-.8-2.7-.6-4.1-.6l-13.8-1.9-5.1-1.1-10.9-2.6-4.1-1.4-10.9-3.6a9 9 0 0 0-4.1-1.6l-9.9-4.4-2.2-1.1-10.9-5.7c-.8-1-1.8-1.6-3.1-1.9l-9.9-6.2-1.5-1.1-8.3-5.9-4.1-3.3-7-5.7a77.8 77.8 0 0 0-4.3-3.8l-6.6-6.2-3.2-3.2-6.2-6.6a7.6 7.6 0 0 0-2.8-3.1l-6.3-7.9-2.5-3.1a45.8 45.8 0 0 0-6.2-8.9l-1.9-3-5.5-9.8-1.7-3.1c-1.3-3.7-.4-7 1.5-10.3 2.1-3.5 3.9-7.2 5.8-10.8l11.9-16.8a272.4 272.4 0 0 1 34.9-34.7c6-4.4 11.9-8.7 17.9-12.9zm138-6.9a38.7 38.7 0 0 0-12.1-2.7 6.4 6.4 0 0 0-4-.9c-4.3-.8-8.6-1.6-13-1.3-1.6-.9-3.3-.7-5.1-.5-5-.4-10-.7-14.9.3-1.7-.6-3.4 0-5.1.4-6.5.1-12.8 1.2-19 3-2.5 0-4.8.7-7 1.7-8 1.7-15.7 4.4-23 8.2-3 .7-5.6 2-8 3.8l-2.1 1.1c-.6.2-1.3.3-1.9.7a198.9 198.9 0 0 0-75.6 70.9c-1.8 2.9-2 5.2.6 7.4.3 1.3.9 2.4 1.9 3.2 1.4 2.9 3.1 5.5 5.3 7.9l2.4 3.2c1.7 3 3.8 5.5 6.3 7.9l2.7 3.1c2.1 3 4.5 5.6 7.3 7.9a7.5 7.5 0 0 0 3.1 3 31 31 0 0 0 7.9 7.4l3.1 2.7c2 2.4 4.5 4.1 7.1 5.8l3.9 3.1c2.8 2.4 5.7 4.5 9 6.2l1.5 1.1a46 46 0 0 0 9.5 5.7 6.8 6.8 0 0 0 4 2.1c3.1 2.1 6.4 3.9 10 5a7.5 7.5 0 0 0 4 1.9c3.5 1.8 7.1 3.5 11 4.1.8 1 1.9 1 3 1 3.7 1.9 7.8 2.6 11.9 3.5l5.2 1.2 11.9 1.9 4.2.3c4.9 1 9.9 1.2 15 .8l6.1-.1c5.4-.3 10.7-.4 16-1.7 1.8.3 3.4-.2 5-.9 7.6-1 15-2.8 22-5.9 2.9-.4 5.5-1.4 8-2.9a135 135 0 0 0 32.1-16.9 136 136 0 0 0 25.3-19.4 166.9 166.9 0 0 0 32.7-38.8c5.1-7.2 5.1-7.2-.7-15.2l-2-3a37.5 37.5 0 0 0-6.4-8.8l-2.8-3.5a35.3 35.3 0 0 0-6.4-7.5 7.8 7.8 0 0 0-2.9-3.1c-1.9-2.7-4.3-5-6.9-7a7.5 7.5 0 0 0-3.1-3 33 33 0 0 0-6.8-6.1 12 12 0 0 0-4.2-3.6c-2.8-2.5-5.5-5-8.9-6.7l-1.4-1a46.4 46.4 0 0 0-10.6-7l-1.5-.9a36 36 0 0 0-10.5-5.8l-2.3-1.2a36.4 36.4 0 0 0-10.4-4.8 12.4 12.4 0 0 0-5.2-2.1 40.3 40.3 0 0 0-11.1-3.7c-1.3-1.4-2.7-1.4-4.1-1.5z"/><path fill="#FDFEFE" d="M198.2 50c-.4 1-1.2 1.1-2.1 1.1l2.1-1.1z"/><path fill="#000102" stroke="#000" stroke-miterlimit="10" d="M280.2 50l4.8.8 11.2 3.1 3.9 1.4 7.8 3.9a6.5 6.5 0 0 0 3.6 2.2l8.8 6.6a4.2 4.2 0 0 0 2.5 2.2l7.2 7.9c.7 1.6 1.7 3 3.1 4.1l4.8 7.9 2.1 4.3 3.4 9.6 1.1 4.2 1.9 11.8.3 6-1.6 16a17.3 17.3 0 0 0-1.8 7 83 83 0 0 1-23.5 35.1 91.3 91.3 0 0 1-25.6 14.9l-8.9 2.3-16.1 1.8-4-.1-14-2.2c-1.1-1.1-2.6-.9-3.9-1.1l-10.1-3.8-3.1-1.6-8.9-5.3a11.4 11.4 0 0 0-4.1-3.1l-6.6-6.1c-.9-1.5-1.9-2.8-3.4-3.8l-5.3-7-2.7-4.1-4.4-8.9-1.3-3.1-3.5-12.9c.1-1.1.2-2.2-.6-3.1l-.5-14.9.2-5 5.2-20 4.3-8.8a88 88 0 0 1 28.6-29l9.9-4.6a96.5 96.5 0 0 1 19-4.9l5-.7c5.2.5 10.2.7 15.2 1zm49 76.1a59.7 59.7 0 0 0-59.8-59.6 59.7 59.7 0 0 0 1.2 119.4 59.7 59.7 0 0 0 58.6-59.8z"/><path d="M294.3 105.3c7.3-4.3 12.1-2.6 15.3 5.2a42.8 42.8 0 0 1-77.6 35.6 43 43 0 0 1 35.9-63c5.5-.3 10.9.9 16.2 2.6 4.7 1.6 8.5 3.9 8.5 9.6-.1 5.5-4 7.2-8.2 8.6-4.1-.7-7.7-3.4-12-3a5 5 0 0 0-5 0c-11.9.7-20.8 9.3-22.8 22.1v5c.2 4.7 1.5 8.9 4.6 12.5a4 4 0 0 0 2.1 2.7c2.3 3.1 5.3 5.1 8.9 6.3 1.3.7 2.6 1.4 4.2 1.3 18.9 3.8 35.5-13.2 30-30.8 0-1.1 0-2.2-1-3-1.6-3.9-1.9-7.9.9-11.7z"/></svg>