<svg xmlns="http://www.w3.org/2000/svg" viewBox="0 0 470 512"><path d="M139.2 386.8l-24.1-7.7c-8-2.6-9.9-6.2-6.7-13.9 11.7-28.4 9.9-56.8.7-85.5a340.2 340.2 0 0 1-11.4-44.4c-4.6-26.2.9-51.3 11.5-75.4 2.6-5.9 5.8-11.6 8.3-17.6.8-1.8.9-4.5.1-6.3-5.5-12.8-11.3-25.5-17-38.3-3.8-8.6-.9-13.4 8.5-14 8.1-.6 16.3-1 24.4-1.9 1.7-.2 4.1-1.6 4.7-3.1A44.7 44.7 0 0 1 159.8 56c12.9-7 27-10.3 41.5-11.9 6-.7 10.5-2.4 13.8-7.9 3.8-6.4 8.6-12.3 12.9-18.4 5.1-7.4 11.4-7.3 16.6.2 5.4 7.6 10.7 15.3 16.4 22.7 1.3 1.7 3.8 3 6 3.6 12.4 3.7 25.1 6.4 37.2 11.1A42.3 42.3 0 0 1 329 78.8c.5 1.1 2.4 2.2 3.7 2.3l33.9 2.7c8 .6 11.1 5.7 7.9 13.1-5.6 12.6-11.2 25.3-17 37.8-1.5 3.2-1.5 5.6.3 8.7 9.6 16.7 17 34.3 20.6 53.3a137 137 0 0 1-4.4 61.7c-4.5 16.5-9.2 33-12.4 49.8a128 128 0 0 0 4.2 58.3c2.3 8.4.6 11.5-7.8 13.9l-21.5 6.2c2.9 1.1 4.6 1.9 6.3 2.4 19.6 5.3 39.1 11.1 58.8 15.8a48.4 48.4 0 0 1 37.4 32.9c6.1 17.4 13 34.5 19.4 51.9 2.5 6.9-1 11.9-8.5 12.1-9.8.2-19.7.1-29.5.1H28.9c-2 0-4 .1-6-.2-5.1-.7-8.4-5.1-7.1-10.1a315.6 315.6 0 0 1 21.7-62.6c5-10.2 12.6-17 23.6-19.9l58.5-14.9c6.6-1.7 13-3.9 19.6-5.9v-1.4zm10.9-216.7a214.7 214.7 0 0 0 8.3 129.6c8.9 22.2 20.8 42.5 39.9 57.6a57.1 57.1 0 0 0 50.9 12.6 81.4 81.4 0 0 0 45.5-31.4c28.1-36.1 38-77.9 35.5-122.9-1-17.1-9.2-30.8-25.8-37.2a74.7 74.7 0 0 0-26.5-6.1c-23.9-.1-47.9 1.2-71.8 2.3-18.9.7-37.7 3.6-56-4.5zm-23.4 195.3c10 3.2 20.3 6.2 30.5 9.7 3.1 1.1 4.7.3 6-2.3l10.8-21.3c1.3-2.6.4-4.3-1-6.7-7.4-12.2-15.7-24.1-21.4-37.1a212.7 212.7 0 0 1-15.8-109.5c1.3-12.4 4.2-24.6 6.6-36.8.9-4.6 4.6-6.3 7.6-3.5 7.2 6.7 16 8.2 25.1 8 18.1-.5 36.3-1.5 54.4-2.5 20-1.1 39.9-2.9 59.8.5 30.7 5.3 47.8 22.4 50.3 53.1 2.6 32.3-3.8 63.3-16.7 92.9a153.6 153.6 0 0 1-27.4 42.3l13.8 24.9 37.9-11c-1.3-14.5-3.2-28-3.5-41.6-.5-20.5 5.5-40.1 11-59.7 3.5-12.5 7-25.1 8.5-37.9 3.4-29.9-8-56.2-23-81.1-.7-1.1-3-1.9-4.6-1.9-65.5-.1-131-.1-196.5.1-1.8 0-4.2 1.7-5.1 3.3-3 5.1-5.7 10.5-8.2 16-9.4 20.8-15.6 42.5-12.1 65.4a358 358 0 0 0 11.3 46.5c6 20.8 10.8 41.7 7.4 63.4-1.5 8.8-3.8 17.5-5.7 26.8zm109.4-330l-3.5 4.7c-10.2 12.5-20.2 25.2-30.7 37.5a42 42 0 0 1-25.6 14.5c-12.5 2.1-25 4-37.5 5.8-6.1.9-12.4 1.2-19.2 1.8 4.7 10.6 9.3 20.2 13.4 30 1.5 3.6 3.3 4.9 7.3 4.9l183-.1c5.3 0 11.8 1.5 15.5-1 3.8-2.5 5-9 7.2-13.9l8.7-19.7c-13-1.4-25.2-3.1-37.4-3.9a74.7 74.7 0 0 1-59.9-32.8c-6.5-9.3-13.9-18.2-21.3-27.8zm204.2 449.4c-7.9-18.4-15.1-35.9-23.1-53-1.4-3.1-5.7-5.9-9.2-7-21.9-6.6-44-12.7-64.8-18.7-10.1 15-19.1 29.3-29.1 43a157 157 0 0 1-37 35.6l163.2.1zm-249.3-.1c-6.6-5.7-13-10.8-19-16.5a223 223 0 0 1-40.9-55.1c-2-3.8-4-4.5-7.7-3.1-3.7 1.3-7.7 2.1-11.6 3-15.6 4-31.3 7.8-46.8 12.1-3.6 1-7.8 3.3-9.7 6.3-10.5 16.2-15.1 34.9-20.9 53.3H191zm-8.4-128.1l-13.4 25.1 2.6 2.8c16.2 15.6 32.5 31 48.6 46.8 4.3 4.2 8.3 8 15 6.5 1.2-.3 2.8 0 3.9.5 3 1.4 4.9.1 7-1.9l52.4-49.4c1.2-1.1 2.7-1.9 3.8-2.6l-14.1-25c-35.5 30.1-75 28.1-105.8-2.8zm-39.5 56.1l-1.2 1c5.2 7.8 10.2 15.8 15.8 23.4 13 17.7 27.9 33.6 47.4 44.3 3.7 2 8.4 3.1 12.6 3.3 8.6.5 17.4-.6 26 .3 11.7 1.2 21-3 30-9.6a194.5 194.5 0 0 0 53.3-62.6c.1-.1-.2-.5-.4-.8-.3.1-.7.2-.9.4a8509.7 8509.7 0 0 1-64.1 39.7c-3.2 2-4.6 3.8-4 7.8 1.2 9.3-3.5 16.5-12.6 18.8a49.5 49.5 0 0 1-16.3 1.2c-15.3-1.3-21.4-9.8-18.6-24.8.1-.3-.1-.6-.2-1.3l-66.8-41.1zm75.7 29.8a86887 86887 0 0 0-52.4-50.3l-20.3 11.2 69 42.7c1.4-1.2 2.4-2.3 3.7-3.6zm106.7-41.6l-17.4-10-57.6 54.3c4.2.8 65.8-36.3 75-44.3zM148.7 79.8c20.9-1.1 40.1-5.3 51.3-25.7-20-.5-47.2 13-51.3 25.7zm84.8 391.1v.3c2.5-.3 5-.3 7.4-.9 6.5-1.5 8.7-5.4 7.2-11.9a15.5 15.5 0 0 0-12-11.4c-5.7-1-11.9 1.7-15.1 6.6-5.6 8.6-1.8 16.4 8.4 17.2 1.5.2 2.8.1 4.1.1zM273 54.7c10.3 17.5 26.1 23.6 45.8 24.1-11.5-16.1-28.5-19.9-45.8-24.1z"/></svg>