<svg id="sale" xmlns="http://www.w3.org/2000/svg" viewBox="0 0 139 126"><path d="M134 20.3c-.6.6-1.4 1-1.7 1.7-2.7 6-7.3 8.1-13.7 7.2-2.5-.4-6-1.1-4.8 4.1-3.2-1.1-7.2 2.1-8-3.4-.1-.4-2-.8-3.1-.8H61.2c-1.1 0-3 .4-3.1.8-.5 5.2-4.5 2.3-6.7 3.4l.2-1.8c-2.3-.8-4.5-2.2-6.8-2.3-4.8-.4-9.6-.1-14.8-.1l-.3 5.2v80.4c0 5.7-4.9 8.9-9.8 5.9-1.2-.7-1.7-3.4-1.7-5.2l-.1-79.9v-6.3c-7.6 1.3-8.3-5.8-12.2-8.9v-2l10.6-1.1L23 5.1l2 .2 6.3 12.3h96.2c2.1 0 4.2.5 6.3.8.2.6.2 1.3.2 1.9z"/><path d="M81.7 109.1H48.2c-7.2 0-10-2.8-10-9.9V47.7c0-7.5 2.8-10.2 10.3-10.2h67.4c6.9 0 9.8 2.9 9.8 9.7v52.5c0 6.4-3.1 9.4-9.6 9.4H81.7zm.4-64H50.6c-2.8 0-4.8.3-4.8 3.9v48.5c0 3.1 1.3 4.1 4.2 4.1h64c3.3 0 4.3-1.3 4.3-4.5V49.6c0-3.6-1.3-4.6-4.7-4.6-10.5.2-21 .1-31.5.1z"/><path d="M98.8 61.3c-2.6 2.1 1.5 7.4-4.4 7.8V49.8l4.8-.3c5.7 0 7.8 2.8 6.5 8.3-.8 3.4-1.2 6.9-1.8 10.8-.7 0-.7 0-5.1-7.3zM81.8 97.9c-3.3-2.1-5.5-4.5-7.6-4.5-2.2 0-4.5 2.3-7.9 4.4l4.9-19.7c4.2-1.6 5.8 0 6.6 3.7 1 5 2.4 9.8 4 16.1zM74.2 59.2c0-5.1 3.5-9.5 7.6-9.6 4.2-.1 8 4.7 8 9.8-.1 5.3-4 9.9-8.1 9.7-4-.2-7.5-4.9-7.5-9.9zm13.7 0c-2.5-2.6-4-5.6-5.8-5.7-3.5-.3-4.7 3.1-4.1 5.9.4 2.2 2.5 4 3.9 6l6-6.2zM102.6 77.7H114c-.8 5.5-5.3 2.2-8.4 4.6l2.7 3.3c.5.5 1.5 1.2 1.4 1.5-.2.7-.9 1.4-1.5 2l-3.8 4.1 9.1.6c-.2 3.9-.5 4-10.8 3l-.1-19.1zM52.5 97l-2.2-1.7 3.8-1.8 3.9-1.6c-1-1.1-1.7-2.7-3-3.4-2.9-1.6-5.8-3.1-4.2-7.1 1.7-4.4 5.6-4.1 9.3-3.8.6 0 1.2 1.1 1.7 1.8-.6.6-1.2 1.2-1.9 1.6-.4.2-1-.1-1.5.1l-4.3 1.6 3.1 3.3c1.6 2 4.4 4.2 4.3 6.2-.3 3.8-3.7 5.2-9 4.8zM58.4 68.7V49.9H69c.3 2.9.3 2.9-8.2 3.4 1.6 1.9 2.7 3 3.4 4.2.5.9.4 2.2.6 3.3-4.1-.1-2.8 3-3.2 5.2-.2 1.2-1.3 2.2-1.9 3.3l-1.3-.6zM86.6 77.5c5.3.2 2.7 4.2 3.1 6.4.4 2.9.1 5.9.1 9 2.8.5 5.3.9 7.7 1.5.2 0 0 1.5 0 2.4l-2.6.3h-8.3V77.5z"/></svg>