<svg id="shopping_cart" xmlns="http://www.w3.org/2000/svg" viewBox="0 0 67 64"><path d="M22.9 54.9c0 1.2-.5 2.3-1.4 3.2-.9.9-2 1.4-3.2 1.3s-2.3-.5-3.2-1.3a4.2 4.2 0 0 1-1.4-3.2c0-1.3.5-2.4 1.4-3.3.9-.9 2-1.3 3.2-1.3s2.3.4 3.2 1.3 1.4 2 1.4 3.3zm32 0c0 1.2-.5 2.3-1.4 3.2s-2 1.4-3.2 1.3a5.4 5.4 0 0 1-3.2-1.3c-.9-.8-1.4-1.9-1.4-3.2s.5-2.4 1.4-3.3c.9-.9 2-1.3 3.2-1.3 1.2 0 2.3.4 3.2 1.3s1.4 2 1.4 3.3zM59.4 16v18.3c0 .5-.2 1-.6 1.5s-.9.7-1.4.8L20 40.9l.5 2.5c0 .4-.3 1.2-.9 2.3h32.9c.6 0 1.1.2 1.6.7.5.5.7 1 .7 1.6 0 .6-.2 1.1-.7 1.6-.5.5-1 .7-1.6.7H16c-.7 0-1.2-.2-1.6-.7-.4-.5-.6-1-.7-1.6l.3-1.1.6-1.3.7-1.4.6-1-6.3-29.6H2.3c-.7 0-1.2-.2-1.6-.7-.4-.5-.6-1-.7-1.5-.1-.5.2-1.1.7-1.6s1.1-.8 1.6-.7h9.1c.4 0 .7.1 1 .3l.7.5c.2.1.4.4.5.9l.3 1 .2 1 .2 1H57c.7 0 1.2.2 1.7.6.5.4.7.9.6 1.6h.1z"/></svg>