<svg xmlns="http://www.w3.org/2000/svg" viewBox="0 0 376.7 302"><path d="M188.4 246.6a7982.8 7982.8 0 0 0-44.7 48.5 12.3 12.3 0 0 1-10 4.3l-121.9-.1c-1.5 0-3.4.5-4.4-.3-1.7-1.3-3.9-3.4-4-5.2-.1-1.5 2.3-3.7 4.1-4.5 1.8-.8 4.3-.3 6.4-.3 38.8 0 77.6-.1 116.4.1 3.7 0 6.1-1.2 8.6-3.9 14.5-15.9 29.1-31.6 43.7-47.4 4.5-4.9 6.8-4.9 11.4.1 14.6 15.8 29.2 31.5 43.7 47.4 2.5 2.7 4.9 3.8 8.6 3.8l117.9-.1c3.9 0 8.6-1 9.2 4.9.4 3.9-2.4 5.4-9.3 5.4l-121.9.1c-3.9 0-6.5-1.3-9.1-4.1-13.6-14.9-27.3-29.6-41-44.4l-3.7-4.3zM267.5 187.3c0 12.2-2.7 23.7-8 34.7-1.6 3.3-3.3 6.8-7.7 4.9-4.7-2.1-3.3-5.6-1.5-9.3a69 69 0 0 0-38.2-95.3 68.2 68.2 0 0 0-73.5 17 67.5 67.5 0 0 0-13.7 75l1.2 2.7c1.8 3.5 3.8 7.4-1.2 9.7-4.7 2.2-6.4-1.8-8-5.2a79.6 79.6 0 0 1 72.4-114 79.8 79.8 0 0 1 78.2 79.8zM342.7 194.3h-23c-3.7 0-7-1-7-5.3s3.4-5.1 7.1-5.1h45.5c3.6 0 7 .7 6.9 5.2-.1 4.4-3.4 5.2-7.1 5.2h-22.4zM130.6 74.3c-.9 1.2-1.6 3.3-2.9 3.9-1.6.6-3.7.2-5.6-.3-.8-.2-1.4-1.4-1.9-2.2L96.3 34.3c-1.8-3.1-1.5-5.9 1.7-7.7 3-1.6 5.5-.3 7.1 2.5l24.1 41.8c.6.9.8 1.8 1.4 3.4zM285.1 32.4c-1 2.3-1.6 3.8-2.4 5.2l-22.4 38.9c-1.8 3.2-4.1 5.8-7.9 3.7-3.9-2.1-3.1-5.3-1.2-8.6 7.8-13.4 15.4-26.9 23.4-40.1 1.1-1.8 4.1-3 6.3-3.1 1.3 0 2.8 2.6 4.2 4zM345.1 93.7c1.3 1.2 3.4 2.3 3.8 3.8.4 1.6-.4 3.8-1.3 5.4-.7 1.1-2.4 1.7-3.7 2.5L306 127.3c-3.3 1.9-6.6 3.2-9-.9-2.3-3.9.5-6.1 3.6-7.9l39.7-22.9 4.8-1.9zM77.6 126.3c-2.2-1-3.5-1.5-4.8-2.3l-39.3-22.6c-3.2-1.8-5.8-4.1-3.8-7.9 2.2-4.2 5.6-3 8.9-1 13.2 7.7 26.5 15.2 39.6 23.1 1.8 1.1 3.4 4 3.5 6.2.1 1.4-2.6 3-4.1 4.5zM34.1 180h23c3.6 0 6.6 1 6.6 5 .1 4-2.8 5.3-6.4 5.3H10.9c-3.5 0-6.5-1-6.6-5.1-.1-4.2 2.9-5.2 6.4-5.2h23.4zM185.2 33V9.5c0-3.7 1.2-6.5 5.2-6.4 4 0 5.1 2.9 5 6.6v46.5c0 3.6-1 6.5-5.2 6.4-4.2 0-5.1-3-5-6.6V33c-.1 0-.1 0 0 0z"/></svg>