<svg id="telephone" version="1" xmlns="http://www.w3.org/2000/svg" viewBox="0 0 458 470"><path d="M103 419v23c-1 9-6 16-14 16-10 2-18-5-18-15v-24H51c-9 0-12-3-12-12v-76c0-5 1-9 5-12l112-128c5-6 11-11 14-18s1-15 1-23c0-9 5-15 12-17 10-1 19 5 19 15v25h58v-25c0-7 5-13 12-15 7-1 14 2 17 9l2 6v2c0 8-2 16 1 23s10 12 15 18l112 128c3 3 4 7 4 12v75c0 10-3 13-13 13h-17l-2 1v23c0 9-7 16-17 16-8-1-14-7-15-16v-19-5H103zm154-114c0-15-11-27-26-27-14 0-26 12-26 26 0 15 11 26 25 27 15 0 27-12 27-26zm-58 44c0-8-6-14-13-14-8 0-14 6-14 14 0 7 7 14 14 13 7 0 13-6 13-13zm64 0c0 7 6 13 13 13s14-6 14-13c0-8-7-14-14-14s-13 6-13 14zm0-91c0 7 5 13 13 14 7 0 14-6 14-14 0-7-6-13-14-13-7 0-13 6-13 13zm-64 1c0-8-6-14-13-14s-14 6-14 13c0 8 6 14 14 14 7 0 13-6 13-13zm96 31c-7 0-13 6-13 13-1 8 5 14 13 14a13 13 0 0 0 0-27zm-51 77a13 13 0 0 0-27 1c1 7 7 13 14 13 8 0 13-6 13-14zm0-128c0-7-6-13-13-13-8 0-13 6-13 14 0 7 6 13 13 13 8 0 13-6 13-14zm-64 64c0-7-6-13-13-13-8 0-13 6-13 13 0 8 6 14 13 14 8 0 13-6 13-14z"/><path d="M231 14h81c59 0 109 36 127 92 4 13 6 27 9 40 1 10-3 14-12 13l-109-3c-7-1-9-4-10-11l-7-35-6-12c-3-5-8-7-14-7l-69 1-46-1c-10 0-16 4-20 12-7 13-9 27-10 41-1 9-3 11-11 12l-109 3c-8 1-12-3-11-11 3-29 11-56 28-80 23-32 54-49 92-53 25-3 51-1 77-1h20z"/></svg>