<svg version="1" xmlns="http://www.w3.org/2000/svg" viewBox="0 0 404 290"><path d="M58 25H17c-3-1-6-3-6-6 0-4 3-6 7-6h367c7 0 10 2 10 6s-3 6-10 6h-33c-4 0-5 1-5 4v11c0 4 0 8 5 12s5 12 0 16-5 8-5 13 1 8 6 11c13 7 12 27-1 34-4 2-5 4-5 8v7l3 5c7 7 7 15 0 21l-2 4-1 35h23c7 0 9 2 9 9-1 9 0 19-2 27-4 23-23 37-47 37H67c-23-4-39-23-40-47v-18c1-5 3-7 8-8h23v-11-17c0-5 0-9-4-13-5-4-4-12 0-16 4-3 4-7 4-10v-6c0-3-1-5-4-7-13-7-14-27 0-34 3-2 4-5 4-8v-7c-1-3-1-5-3-7-5-6-5-13 0-19l3-6V25zM39 218v11c0 23 15 39 38 39a106092 106092 0 0 0 264-2c21-6 29-25 25-48H39zM266 25h-55l-2 1v21l2 3c7 6 7 14 0 20l-3 6v8c0 3 1 5 5 7 13 7 14 26 1 34-5 3-6 7-6 12s1 8 5 11c5 5 4 14-1 19-2 1-3 2-3 4l-1 35h58v-33c0-2-1-5-3-7-4-5-5-13 0-17 3-4 4-7 3-11v-6c1-3-1-5-3-6-14-8-14-26-2-34 5-3 6-5 5-10v-5c1-3 0-6-3-8-5-5-5-13 1-18l2-5V25zm-127 0v19c0 2 1 5 3 6 6 6 6 15 0 20-3 2-3 4-3 7v6c-1 4 0 6 4 8 7 3 11 10 11 17 0 8-4 14-11 18-4 2-5 4-4 8v6c0 3 0 5 3 7 6 5 6 14 0 20l-3 3v36h58v-35l-3-4c-5-6-5-14 0-20 2-1 2-4 3-6v-7c0-4-1-6-4-8-13-8-14-27-1-34 4-3 5-5 5-9v-5c0-4-1-6-3-9-6-5-5-13 0-19l3-6V29c0-3-1-5-5-4h-53zm139 0v19c0 2 0 4 3 6 6 6 6 14 0 20-2 2-3 4-3 7v6c-1 4 0 6 4 8 14 7 14 27 1 34-5 3-6 6-5 10v4c-1 4 0 6 3 9 6 4 6 13 0 18-3 3-4 5-3 9v31h58v-33l-3-6c-5-6-6-14-1-19l4-8v-7c0-3-1-5-4-7-13-8-14-27-1-34 4-3 5-5 5-9v-7c-1-2-1-5-3-6-6-6-6-13 0-20l2-3 1-22h-58zM127 206v-35l-2-5c-6-5-6-13 0-19 2-2 3-16 2-19l-2-1c-16-10-16-28-1-37l3-4v-7c0-4 0-8-4-11-4-5-4-12 1-17 1-1 3-2 3-4V25H69v21l3 4c7 6 6 14 0 20l-3 6v7c0 4 1 6 5 8 13 7 14 27 1 34-5 3-6 6-6 10 0 6 0 10 5 14 4 4 4 12 0 15-6 5-5 10-5 15v22l1 5h57zM64 100c-5 0-9 4-9 8 0 5 4 9 8 9 5 0 10-4 10-8 0-5-4-9-9-9zm78 9c0-6-3-9-9-9-4 0-8 3-8 8s4 9 8 9c6 0 9-3 9-8zm61-9c-5 0-9 4-9 8 0 5 4 9 9 9s9-4 9-8c0-5-4-9-9-9zm139 0c-5 0-9 3-9 8s4 9 9 9c4 0 8-4 9-8 0-5-4-9-9-9zm-61 9c0-5-4-9-9-9-4 0-8 4-8 8 0 5 4 9 8 9 5 0 9-4 9-8z"/></svg>