<svg id="twitter-social-logotype" version="1" xmlns="http://www.w3.org/2000/svg" viewBox="0 0 1000 1000"><path d="M827 10H173C84 10 10 84 10 173v654c0 90 74 163 163 163h654c89 0 163-73 163-163V173c0-89-73-163-163-163zm-15 327l1 21a459 459 0 0 1-705 393 325 325 0 0 0 238-68c-70-1-130-49-150-114a159 159 0 0 0 72-3c-73-15-129-81-129-160v-2c22 12 47 19 73 20a165 165 0 0 1-50-219c80 99 198 165 332 172-3-12-4-25-4-38 0-90 72-164 161-164 46 0 88 20 117 52 37-7 72-21 103-40-12 39-38 71-71 91 32-4 63-13 92-26-21 33-48 62-80 85z"/></svg>