<svg version="1" xmlns="http://www.w3.org/2000/svg" viewBox="0 0 492 288"><path d="M246 279c-41-1-80-6-118-21-46-18-80-49-107-90l-7-11c-6-8-5-16 0-25A238 238 0 0 1 187 16c45-6 89-6 133 3 65 13 115 47 151 103l7 10c6 9 5 17 0 26a235 235 0 0 1-175 116l-57 5zm89-134c0-49-40-89-89-89-49 1-89 41-89 89 1 49 41 89 89 89 49 0 89-40 89-89zM178 49l-2-1C118 60 73 92 42 143v5a196 196 0 0 0 136 94c-32-25-50-57-50-97s18-72 50-96zm136-1c32 25 50 57 50 97s-18 72-50 97c60-12 104-44 136-94v-6a202 202 0 0 0-136-94z"/><path d="M246 202c-30 0-55-23-57-53-2-31 20-58 50-61 10-1 17 4 18 14 3 17 13 26 31 26 8 0 14 6 15 14 3 32-24 60-57 60z"/></svg>