<svg id="vk-social-logotype" version="1" xmlns="http://www.w3.org/2000/svg" viewBox="0 0 1000 1000"><path d="M985 725l-4-6c-16-31-49-68-97-113l-1-1-1-1c-22-21-36-34-42-42-10-13-13-27-7-41 4-10 19-33 46-67l33-43c59-78 85-128 77-150l-3-5c-2-3-8-6-16-9-9-2-20-3-33-1l-147 1h-10l-7 2-2 1-2 2-6 5-5 9a834 834 0 0 1-116 204c-7 7-13 13-19 17-6 5-10 7-13 6l-9-2c-5-3-9-7-12-12-3-6-5-12-6-20a236 236 0 0 1-1-46 598 598 0 0 0 1-63l2-36v-28l-2-23-5-17c-2-5-6-9-11-12-4-3-10-5-17-7-18-4-41-6-69-6-63-1-103 3-121 12-8 4-14 9-20 15-6 8-7 12-2 12 20 3 34 11 43 22l3 6a236 236 0 0 1 12 61 397 397 0 0 1-12 129l-6 11-3 3c-4 2-9 2-13 2-5 0-11-2-18-7-6-4-14-11-21-19l-25-35-28-53-8-15a1177 1177 0 0 1-45-95c-3-7-7-12-12-16l-3-1c-1-2-4-3-8-5l-12-3-139 1c-15 0-24 3-29 10l-2 3-2 8 3 14a1676 1676 0 0 0 220 370l14 15 13 12a607 607 0 0 0 89 63 284 284 0 0 0 141 36h59c12-1 21-5 27-12l2-2 3-10c2-4 2-9 2-14 0-14 1-27 3-39l9-27a63 63 0 0 1 20-22l4-2c8-2 18 0 29 8s21 18 31 30a920 920 0 0 0 71 72l10 6c7 4 15 8 26 11 11 4 21 5 29 3l130-2c13 0 23-2 31-7 7-4 11-9 12-14 2-5 2-11 1-17l-4-14z"/></svg>